<?xml version="1.0" encoding="UTF-8"?>
<svg xmlns="http://www.w3.org/2000/svg" xmlns:xlink="http://www.w3.org/1999/xlink" width="3000" height="2500" viewBox="0 0 3000 2500">
	<path fill-rule="nonzero" fill="#2563eb" fill-opacity="1" d="M 1500 359.109375 C 1008.761719 359.109375 609.105469 758.761719 609.105469 1250 C 609.105469 1741.238281 1008.761719 2140.890625 1500 2140.890625 C 1991.238281 2140.890625 2390.890625 1741.238281 2390.890625 1250 C 2390.890625 758.761719 1991.238281 359.109375 1500 359.109375 Z M 1500 2211.699219 C 1243.121094 2211.699219 1001.621094 2111.671875 819.972656 1930.03125 C 638.328125 1748.378906 538.296875 1506.878906 538.296875 1250 C 538.296875 993.121094 638.328125 751.621094 819.972656 569.96875 C 1001.621094 388.328125 1243.121094 288.300781 1500 288.300781 C 1756.878906 288.300781 1998.378906 388.328125 2180.03125 569.96875 C 2361.671875 751.621094 2461.699219 993.121094 2461.699219 1250 C 2461.699219 1506.878906 2361.671875 1748.378906 2180.03125 1930.03125 C 1998.378906 2111.671875 1756.878906 2211.699219 1500 2211.699219 "/>
	<path fill-rule="nonzero" fill="#2563eb" fill-opacity="1" d="M 1500 427.710938 C 1046.578125 427.710938 677.703125 796.578125 677.703125 1250 C 677.703125 1703.421875 1046.578125 2072.300781 1500 2072.300781 C 1953.410156 2072.300781 2322.289062 1703.421875 2322.289062 1250 C 2322.289062 796.578125 1953.410156 427.710938 1500 427.710938 Z M 1500 2128.949219 C 1265.230469 2128.949219 1044.511719 2037.519531 878.496094 1871.5 C 712.480469 1705.5 621.054688 1484.78125 621.054688 1250 C 621.054688 1015.230469 712.480469 794.511719 878.496094 628.5 C 1044.511719 462.480469 1265.230469 371.058594 1500 371.058594 C 1734.769531 371.058594 1955.5 462.480469 2121.5 628.5 C 2287.519531 794.511719 2378.941406 1015.230469 2378.941406 1250 C 2378.941406 1484.78125 2287.519531 1705.5 2121.5 1871.5 C 1955.5 2037.519531 1734.769531 2128.949219 1500 2128.949219 "/>
	<path fill-rule="nonzero" fill="#2563eb" fill-opacity="1" d="M 1500 1224.738281 C 1486.070312 1224.738281 1474.738281 1236.070312 1474.738281 1250 C 1474.738281 1263.929688 1486.070312 1275.261719 1500 1275.261719 C 1513.929688 1275.261719 1525.261719 1263.929688 1525.261719 1250 C 1525.261719 1236.070312 1513.929688 1224.738281 1500 1224.738281 Z M 1500 1353.148438 C 1443.121094 1353.148438 1396.851562 1306.878906 1396.851562 1250 C 1396.851562 1193.121094 1443.121094 1146.851562 1500 1146.851562 C 1556.878906 1146.851562 1603.148438 1193.121094 1603.148438 1250 C 1603.148438 1306.878906 1556.878906 1353.148438 1500 1353.148438 "/>
	<path fill-rule="nonzero" fill="#2563eb" fill-opacity="1" d="M 1505.308594 2090.820312 L 1494.691406 2090.820312 L 1494.691406 1338.351562 L 1505.308594 1338.351562 L 1505.308594 2090.820312 "/>
	<path fill-rule="nonzero" fill="#2563eb" fill-opacity="1" d="M 1712.488281 2063.550781 L 1517.738281 1336.710938 L 1528 1333.960938 L 1722.75 2060.800781 L 1712.488281 2063.550781 "/>
	<path fill-rule="nonzero" fill="#2563eb" fill-opacity="1" d="M 1915.808594 1980.828125 L 1539.578125 1329.160156 L 1548.769531 1323.851562 L 1925.011719 1975.519531 L 1915.808594 1980.828125 "/>
	<path fill-rule="nonzero" fill="#2563eb" fill-opacity="1" d="M 2090.800781 1848.308594 L 1558.71875 1316.21875 L 1566.230469 1308.710938 L 2098.300781 1840.800781 L 2090.800781 1848.308594 "/>
	<path fill-rule="nonzero" fill="#2563eb" fill-opacity="1" d="M 2225.519531 1675.011719 L 1573.859375 1298.769531 L 1579.171875 1289.570312 L 2230.828125 1665.808594 L 2225.519531 1675.011719 "/>
	<path fill-rule="nonzero" fill="#2563eb" fill-opacity="1" d="M 2310.800781 1472.75 L 1583.960938 1277.988281 L 1586.71875 1267.730469 L 2313.550781 1462.488281 L 2310.800781 1472.75 "/>
	<path fill-rule="nonzero" fill="#2563eb" fill-opacity="1" d="M 2340.828125 1255.308594 L 1588.351562 1255.300781 L 1588.351562 1244.679688 L 2340.828125 1244.691406 L 2340.828125 1255.308594 "/>
	<path fill-rule="nonzero" fill="#2563eb" fill-opacity="1" d="M 1586.71875 1232.261719 L 1583.960938 1222 L 2310.800781 1027.25 L 2313.558594 1037.511719 L 1586.71875 1232.261719 "/>
	<path fill-rule="nonzero" fill="#2563eb" fill-opacity="1" d="M 1579.171875 1210.421875 L 1573.859375 1201.21875 L 2225.519531 824.988281 L 2230.828125 834.179688 L 1579.171875 1210.421875 "/>
	<path fill-rule="nonzero" fill="#2563eb" fill-opacity="1" d="M 1566.230469 1191.28125 L 1558.71875 1183.769531 L 2090.800781 651.691406 L 2098.308594 659.199219 L 1566.230469 1191.28125 "/>
	<path fill-rule="nonzero" fill="#2563eb" fill-opacity="1" d="M 1548.769531 1176.140625 L 1539.578125 1170.828125 L 1915.820312 519.160156 L 1925.019531 524.480469 L 1548.769531 1176.140625 "/>
	<path fill-rule="nonzero" fill="#2563eb" fill-opacity="1" d="M 1527.988281 1166.03125 L 1517.730469 1163.28125 L 1712.488281 436.441406 L 1722.75 439.191406 L 1527.988281 1166.03125 "/>
	<path fill-rule="nonzero" fill="#2563eb" fill-opacity="1" d="M 1505.308594 1161.640625 L 1494.691406 1161.640625 L 1494.691406 409.171875 L 1505.308594 409.171875 L 1505.308594 1161.640625 "/>
	<path fill-rule="nonzero" fill="#2563eb" fill-opacity="1" d="M 1472 1166.03125 L 1277.25 439.191406 L 1287.511719 436.441406 L 1482.261719 1163.28125 L 1472 1166.03125 "/>
	<path fill-rule="nonzero" fill="#2563eb" fill-opacity="1" d="M 1451.21875 1176.140625 L 1074.988281 524.46875 L 1084.191406 519.160156 L 1460.421875 1170.828125 L 1451.21875 1176.140625 "/>
	<path fill-rule="nonzero" fill="#2563eb" fill-opacity="1" d="M 1433.769531 1191.28125 L 901.691406 659.191406 L 909.199219 651.679688 L 1441.28125 1183.769531 L 1433.769531 1191.28125 "/>
	<path fill-rule="nonzero" fill="#2563eb" fill-opacity="1" d="M 1420.828125 1210.421875 L 769.164062 834.171875 L 774.476562 824.980469 L 1426.140625 1201.21875 L 1420.828125 1210.421875 "/>
	<path fill-rule="nonzero" fill="#2563eb" fill-opacity="1" d="M 1413.28125 1232.261719 L 686.449219 1037.5 L 689.195312 1027.238281 L 1416.03125 1222 L 1413.28125 1232.261719 "/>
	<path fill-rule="nonzero" fill="#2563eb" fill-opacity="1" d="M 1411.648438 1255.308594 L 659.167969 1255.300781 L 659.167969 1244.679688 L 1411.648438 1244.691406 L 1411.648438 1255.308594 "/>
	<path fill-rule="nonzero" fill="#2563eb" fill-opacity="1" d="M 689.191406 1472.738281 L 686.445312 1462.480469 L 1413.289062 1267.738281 L 1416.03125 1278 L 689.191406 1472.738281 "/>
	<path fill-rule="nonzero" fill="#2563eb" fill-opacity="1" d="M 774.46875 1675 L 769.15625 1665.800781 L 1420.828125 1289.578125 L 1426.140625 1298.769531 L 774.46875 1675 "/>
	<path fill-rule="nonzero" fill="#2563eb" fill-opacity="1" d="M 909.191406 1848.300781 L 901.679688 1840.789062 L 1433.769531 1308.71875 L 1441.28125 1316.230469 L 909.191406 1848.300781 "/>
	<path fill-rule="nonzero" fill="#2563eb" fill-opacity="1" d="M 1084.171875 1980.828125 L 1074.980469 1975.511719 L 1451.230469 1323.859375 L 1460.429688 1329.171875 L 1084.171875 1980.828125 "/>
	<path fill-rule="nonzero" fill="#2563eb" fill-opacity="1" d="M 1287.5 2063.550781 L 1277.238281 2060.800781 L 1472.011719 1333.960938 L 1482.269531 1336.710938 L 1287.5 2063.550781 "/>
	<path fill-rule="nonzero" fill="#2563eb" fill-opacity="1" d="M 1510.179688 2079.800781 L 1489.820312 2079.800781 L 1489.820312 2020.28125 L 1510.179688 2020.28125 L 1510.179688 2079.800781 "/>
	<path fill-rule="nonzero" fill="#2563eb" fill-opacity="1" d="M 1724.601562 2048.890625 L 1704.941406 2054.160156 L 1689.53125 1996.660156 L 1709.191406 1991.390625 L 1724.601562 2048.890625 "/>
	<path fill-rule="nonzero" fill="#2563eb" fill-opacity="1" d="M 1923.71875 1963.539062 L 1906.089844 1973.71875 L 1876.320312 1922.171875 L 1893.949219 1911.980469 L 1923.71875 1963.539062 "/>
	<path fill-rule="nonzero" fill="#2563eb" fill-opacity="1" d="M 2093.960938 1829.558594 L 2079.558594 1843.949219 L 2037.46875 1801.871094 L 2051.859375 1787.46875 L 2093.960938 1829.558594 "/>
	<path fill-rule="nonzero" fill="#2563eb" fill-opacity="1" d="M 2223.71875 1656.078125 L 2213.539062 1673.710938 L 2161.988281 1643.960938 L 2172.171875 1626.320312 L 2223.71875 1656.078125 "/>
	<path fill-rule="nonzero" fill="#2563eb" fill-opacity="1" d="M 2304.160156 1454.929688 L 2298.890625 1474.601562 L 2241.390625 1459.199219 L 2246.660156 1439.53125 L 2304.160156 1454.929688 "/>
	<path fill-rule="nonzero" fill="#2563eb" fill-opacity="1" d="M 2329.800781 1239.820312 L 2329.808594 1260.179688 L 2270.28125 1260.179688 L 2270.269531 1239.820312 L 2329.800781 1239.820312 "/>
	<path fill-rule="nonzero" fill="#2563eb" fill-opacity="1" d="M 2298.890625 1025.398438 L 2304.171875 1045.058594 L 2246.671875 1060.46875 L 2241.390625 1040.808594 L 2298.890625 1025.398438 "/>
	<path fill-rule="nonzero" fill="#2563eb" fill-opacity="1" d="M 2213.539062 826.28125 L 2223.71875 843.910156 L 2172.171875 873.679688 L 2161.988281 856.050781 L 2213.539062 826.28125 "/>
	<path fill-rule="nonzero" fill="#2563eb" fill-opacity="1" d="M 2079.558594 656.039062 L 2093.960938 670.441406 L 2051.871094 712.53125 L 2037.46875 698.128906 L 2079.558594 656.039062 "/>
	<path fill-rule="nonzero" fill="#2563eb" fill-opacity="1" d="M 1906.089844 526.28125 L 1923.71875 536.460938 L 1893.960938 588.011719 L 1876.320312 577.828125 L 1906.089844 526.28125 "/>
	<path fill-rule="nonzero" fill="#2563eb" fill-opacity="1" d="M 1704.941406 445.828125 L 1724.601562 451.101562 L 1709.199219 508.601562 L 1689.519531 503.339844 L 1704.941406 445.828125 "/>
	<path fill-rule="nonzero" fill="#2563eb" fill-opacity="1" d="M 1489.820312 420.191406 L 1510.179688 420.191406 L 1510.179688 479.71875 L 1489.820312 479.730469 L 1489.820312 420.191406 "/>
	<path fill-rule="nonzero" fill="#2563eb" fill-opacity="1" d="M 1275.398438 451.101562 L 1295.058594 445.828125 L 1310.480469 503.328125 L 1290.800781 508.609375 L 1275.398438 451.101562 "/>
	<path fill-rule="nonzero" fill="#2563eb" fill-opacity="1" d="M 1076.28125 536.460938 L 1093.910156 526.28125 L 1123.679688 577.820312 L 1106.039062 588.011719 L 1076.28125 536.460938 "/>
	<path fill-rule="nonzero" fill="#2563eb" fill-opacity="1" d="M 906.042969 670.429688 L 920.433594 656.039062 L 962.53125 698.128906 L 948.132812 712.539062 L 906.042969 670.429688 "/>
	<path fill-rule="nonzero" fill="#2563eb" fill-opacity="1" d="M 776.28125 843.910156 L 786.457031 826.28125 L 838.011719 856.039062 L 827.832031 873.679688 L 776.28125 843.910156 "/>
	<path fill-rule="nonzero" fill="#2563eb" fill-opacity="1" d="M 695.839844 1045.058594 L 701.105469 1025.390625 L 758.601562 1040.800781 L 753.335938 1060.46875 L 695.839844 1045.058594 "/>
	<path fill-rule="nonzero" fill="#2563eb" fill-opacity="1" d="M 670.199219 1260.171875 L 670.195312 1239.820312 L 729.71875 1239.808594 L 729.726562 1260.179688 L 670.199219 1260.171875 "/>
	<path fill-rule="nonzero" fill="#2563eb" fill-opacity="1" d="M 701.105469 1474.589844 L 695.835938 1454.929688 L 753.328125 1439.519531 L 758.609375 1459.191406 L 701.105469 1474.589844 "/>
	<path fill-rule="nonzero" fill="#2563eb" fill-opacity="1" d="M 786.457031 1673.710938 L 776.277344 1656.078125 L 827.824219 1626.320312 L 838.015625 1643.949219 L 786.457031 1673.710938 "/>
	<path fill-rule="nonzero" fill="#2563eb" fill-opacity="1" d="M 920.433594 1843.949219 L 906.039062 1829.558594 L 948.128906 1787.460938 L 962.53125 1801.859375 L 920.433594 1843.949219 "/>
	<path fill-rule="nonzero" fill="#2563eb" fill-opacity="1" d="M 1093.910156 1973.71875 L 1076.28125 1963.539062 L 1106.039062 1911.980469 L 1123.679688 1922.171875 L 1093.910156 1973.71875 "/>
	<path fill-rule="nonzero" fill="#2563eb" fill-opacity="1" d="M 1295.058594 2054.160156 L 1275.390625 2048.890625 L 1290.800781 1991.390625 L 1310.46875 1996.660156 L 1295.058594 2054.160156 "/>
	<path fill-rule="nonzero" fill="#2563eb" fill-opacity="1" d="M 1827.230469 2005.199219 L 1806.828125 2013.5 L 1780.621094 1949.078125 L 1801.019531 1940.769531 L 1827.230469 2005.199219 "/>
	<path fill-rule="nonzero" fill="#2563eb" fill-opacity="1" d="M 1836.039062 2001.621094 L 1798.019531 2017.078125 L 1792.960938 2004.660156 L 1830.988281 1989.191406 L 1836.039062 2001.621094 "/>
	<path fill-rule="nonzero" fill="#2563eb" fill-opacity="1" d="M 1789.078125 1907.109375 C 1789.078125 1907.109375 1785.558594 1900.28125 1774.488281 1904.78125 C 1763.429688 1909.289062 1765.671875 1916.628906 1765.671875 1916.628906 L 1776.621094 1956.378906 L 1808.988281 1943.210938 L 1789.078125 1907.109375 "/>
</svg>
